<svg xmlns="http://www.w3.org/2000/svg" viewBox="0 0 24 24" width="24" height="24">
  <!-- Placeholder, macOS variant: the same empty box with the rounder corners
       that platform's own marks carry, and a dot in the middle so the two
       placeholders are told apart at a glance. On the square keyline, 3 units
       in from every edge, with the set's 1.5-unit band; corner radius 4.5
       outside and 3 inside, so the band stays 1.5 units all the way round.
       Outer contour clockwise, inner counter-clockwise; the dot is clockwise
       again so it fills inside the hole. -->
  <path fill="#000000" d="M7.5 3 L16.5 3 C18.985 3 21 5.015 21 7.5 L21 16.5 C21 18.985 18.985 21 16.5 21 L7.5 21 C5.015 21 3 18.985 3 16.5 L3 7.5 C3 5.015 5.015 3 7.5 3 Z M4.5 7.5 L4.5 16.5 C4.5 18.157 5.843 19.5 7.5 19.5 L16.5 19.5 C18.157 19.5 19.5 18.157 19.5 16.5 L19.5 7.5 C19.5 5.843 18.157 4.5 16.5 4.5 L7.5 4.5 C5.843 4.5 4.5 5.843 4.5 7.5 Z"/>
  <!-- The dot is faint on purpose: it is the set's worked example of a
       secondary element, drawn with fill-opacity rather than with a second
       colour. -->
  <path fill="#000000" fill-opacity="0.4" d="M12 10.5 C12.828 10.5 13.5 11.172 13.5 12 C13.5 12.828 12.828 13.5 12 13.5 C11.172 13.5 10.5 12.828 10.5 12 C10.5 11.172 11.172 10.5 12 10.5 Z"/>
</svg>
